<?xml version="1.0" encoding="UTF-8" standalone="no"?>
<svg
   xmlns:dc="http://purl.org/dc/elements/1.1/"
   xmlns:cc="http://creativecommons.org/ns#"
   xmlns:rdf="http://www.w3.org/1999/02/22-rdf-syntax-ns#"
   xmlns:svg="http://www.w3.org/2000/svg"
   xmlns="http://www.w3.org/2000/svg"
   version="1.1"
   id="svg2"
   width="128"
   height="129.33333"
   viewBox="0 0 128 129.33333">
  <metadata
     id="metadata8">
    <rdf:RDF>
      <cc:Work
         rdf:about="">
        <dc:format>image/svg+xml</dc:format>
        <dc:type
           rdf:resource="http://purl.org/dc/dcmitype/StillImage" />
        <dc:title></dc:title>
      </cc:Work>
    </rdf:RDF>
  </metadata>
  <defs
     id="defs6" />
  <g
     id="layer1"
     style="opacity:1" />
  <g
     style="opacity:0.512"
     id="layer3" />
  <g
     id="layer4">
    <path
       id="path26"
       d="m 34.429688,14.078125 -0.0957,0.0078 c 0,0 -2.03935,0.174342 -3.83789,1.636718 -1.79854,1.462376 -3.3503,4.288233 -3.265625,8.441406 0.02633,1.291407 0,10.900391 0,10.900391 l -0.0078,2.416016 2.414063,0.0918 c 0,0 4.290074,0.09464 9.449219,-0.03125 -0.09258,12.428691 -0.369504,32.415299 -0.402344,48.464843 H 28.326172 v 5.582032 c -5.063123,4.700795 -10.197627,10.472929 -14.269531,15.451169 -2.147186,2.62512 -3.99509,5.00853 -5.3750004,6.85938 -1.3799107,1.85084 -2.1520665,2.86734 -2.6738281,3.85937 l -3.2246094,6.12891 6.3964844,-2.65625 c 0.8493235,-0.35283 0.9640475,-0.52608 1.6171875,-0.94531 0.65314,-0.41924 1.49776,-0.97187 2.492187,-1.61719 1.988855,-1.29064 4.578482,-2.9492 7.333985,-4.58203 2.755503,-1.63284 5.681421,-3.23836 8.283203,-4.4043 2.601782,-1.16594 4.960987,-1.82422 6.029297,-1.82422 h 39.0625 l 0.152344,-0.0195 c 0,0 10.010337,-1.20783 20.011718,-7.5625 10.001381,-6.354666 20.134771,-18.218733 20.134771,-38.486328 0,-20.070999 -7.55985,-32.202053 -15.218755,-39.058593 -7.658903,-6.856541 -15.517578,-8.595703 -15.517578,-8.595703 l -0.263672,-0.05664 z m 0.271484,5 h 47.953125 c 0.253359,0.05666 6.497689,1.475406 13.089844,7.376953 6.726689,6.02199 13.552729,16.49538 13.552739,35.333984 0,18.642008 -8.84251,28.563797 -17.816411,34.265626 -8.911392,5.662112 -17.737728,6.787072 -17.861328,6.802732 H 34.935547 c -2.562339,0 -5.191069,0.96969 -8.074219,2.26172 -2.75125,1.23292 -5.648579,2.83992 -8.386719,4.45117 4.119025,-4.99759 9.222267,-10.751182 14.029297,-15.099607 l 0.822266,-0.746094 v -2.71875 h 10.335937 v -2.5 c 0,-18.476759 0.488282,-48.055536 0.488282,-58.742187 l -4.998047,-0.125 c 0,0 -0.06718,1.187183 -0.273438,2.283203 -0.05231,0.277987 -0.107434,0.402537 -0.169922,0.623047 -3.492033,0.07752 -5.26693,0.0538 -6.478515,0.02344 0.0083,-2.583817 0.02796,-7.134431 0,-8.505859 -0.06118,-3.000991 0.784399,-3.9442 1.419922,-4.460938 0.626204,-0.509161 1.03835,-0.522894 1.050781,-0.523437 z"
       style="color:#000000;font-style:normal;font-variant:normal;font-weight:normal;font-stretch:normal;font-size:medium;line-height:normal;font-family:sans-serif;font-variant-ligatures:normal;font-variant-position:normal;font-variant-caps:normal;font-variant-numeric:normal;font-variant-alternates:normal;font-feature-settings:normal;text-indent:0;text-align:start;text-decoration:none;text-decoration-line:none;text-decoration-style:solid;text-decoration-color:#000000;letter-spacing:normal;word-spacing:normal;text-transform:none;writing-mode:lr-tb;direction:ltr;text-orientation:mixed;dominant-baseline:auto;baseline-shift:baseline;text-anchor:start;white-space:normal;shape-padding:0;clip-rule:nonzero;display:inline;overflow:visible;visibility:visible;opacity:1;isolation:auto;mix-blend-mode:normal;color-interpolation:sRGB;color-interpolation-filters:linearRGB;solid-color:#000000;solid-opacity:1;vector-effect:none;fill:#000000;fill-opacity:1;fill-rule:nonzero;stroke:none;stroke-width:5;stroke-linecap:butt;stroke-linejoin:miter;stroke-miterlimit:4;stroke-dasharray:none;stroke-dashoffset:0;stroke-opacity:1;color-rendering:auto;image-rendering:auto;shape-rendering:auto;text-rendering:auto;enable-background:accumulate" />
    <path
       id="path4551"
       d="m 58.324219,29.857422 0.0059,2.53125 0.142578,61.630859 h 15.898438 l 0.574218,-0.328125 c 0,0 20.033204,-11.366074 20.033204,-33.820312 0,-22.377985 -19.466797,-29.703125 -19.466797,-29.703125 l -0.396485,-0.142578 z m 5.011719,5.050781 10.796874,0.105469 c 0.927242,0.330616 15.845704,5.908504 15.845704,24.857422 0,18.614194 -15.619425,28.30891 -17.025391,29.148437 h -9.492187 z"
       style="color:#000000;font-style:normal;font-variant:normal;font-weight:normal;font-stretch:normal;font-size:medium;line-height:normal;font-family:sans-serif;font-variant-ligatures:normal;font-variant-position:normal;font-variant-caps:normal;font-variant-numeric:normal;font-variant-alternates:normal;font-feature-settings:normal;text-indent:0;text-align:start;text-decoration:none;text-decoration-line:none;text-decoration-style:solid;text-decoration-color:#000000;letter-spacing:normal;word-spacing:normal;text-transform:none;writing-mode:lr-tb;direction:ltr;text-orientation:mixed;dominant-baseline:auto;baseline-shift:baseline;text-anchor:start;white-space:normal;shape-padding:0;clip-rule:nonzero;display:inline;overflow:visible;visibility:visible;opacity:1;isolation:auto;mix-blend-mode:normal;color-interpolation:sRGB;color-interpolation-filters:linearRGB;solid-color:#000000;solid-opacity:1;vector-effect:none;fill:#000000;fill-opacity:1;fill-rule:nonzero;stroke:none;stroke-width:5;stroke-linecap:butt;stroke-linejoin:miter;stroke-miterlimit:4;stroke-dasharray:none;stroke-dashoffset:0;stroke-opacity:1;color-rendering:auto;image-rendering:auto;shape-rendering:auto;text-rendering:auto;enable-background:accumulate" />
  </g>
</svg>
