<?xml version="1.0" encoding="UTF-8" standalone="no"?>
<svg
   xmlns:dc="http://purl.org/dc/elements/1.1/"
   xmlns:cc="http://creativecommons.org/ns#"
   xmlns:rdf="http://www.w3.org/1999/02/22-rdf-syntax-ns#"
   xmlns:svg="http://www.w3.org/2000/svg"
   xmlns="http://www.w3.org/2000/svg"
   version="1.1"
   id="svg2"
   width="128"
   height="129.33333"
   viewBox="0 0 128 129.33333">
  <metadata
     id="metadata8">
    <rdf:RDF>
      <cc:Work
         rdf:about="">
        <dc:format>image/svg+xml</dc:format>
        <dc:type
           rdf:resource="http://purl.org/dc/dcmitype/StillImage" />
        <dc:title></dc:title>
      </cc:Work>
    </rdf:RDF>
  </metadata>
  <defs
     id="defs6" />
  <g
     id="layer1"
     style="opacity:1" />
  <g
     style="opacity:1"
     id="layer3">
    <path
       id="path4641"
       d="m 51.925781,18.71875 c -12.813098,0 -18.483098,0.18763 -21.121093,0.394531 -0.659499,0.05173 -1.128385,0.102415 -1.519532,0.166016 -0.391147,0.0636 -0.605652,0.01238 -1.322265,0.421875 -0.358307,0.204747 -1.225202,0.76611 -1.300782,2.076172 -0.0095,0.164405 0.07991,0.234267 0.0957,0.378906 V 36.3125 h 4.455079 V 63.669922 H 24.625 v 5.460937 c -0.531915,0.616891 -3.625217,4.197023 -7.396484,8.738282 -2.041084,2.457818 -4.122277,5.007021 -5.789063,7.152343 C 10.60606,86.094146 9.876359,87.06344 9.2949219,87.890625 8.7134848,88.71781 8.3025303,89.285646 7.9609375,90.105469 L 4.2480469,99.017578 11.820312,93.027344 C 24.23042,83.210391 33.421023,79.865661 33.861328,79.707031 L 58.875,79.458984 c 0.547469,2.222973 1.787859,6.613263 5.207031,12.00586 4.463562,7.039771 12.465334,14.347656 25.125,14.347656 4.080404,0 8.030255,-1.75715 11.109379,-3.4043 2.09954,-1.12313 2.74633,-1.65027 3.61718,-2.25586 l 7.89844,6.35743 10.39258,-12.861332 -6.16992,-5.744141 c 2.20374,-3.367605 6.39293,-10.936428 5.99023,-19.527344 C 121.73775,61.823831 120.0416,54.572517 115.6875,48.75 111.3334,42.927483 104.18755,38.747425 94.050781,38.617188 89.478281,38.558436 85.844318,38.997044 83.552734,39.322266 83.101629,37.079659 82.188876,33.921673 79.4375,30.185547 75.152718,24.367191 66.778349,18.71875 51.925781,18.71875 Z m 0,5 c 13.629454,0 20.072759,4.80092 23.484375,9.433594 3.411617,4.632674 3.654297,9.105468 3.654297,9.105468 l 0.154297,2.808594 2.771484,-0.484375 c 0,0 6.059594,-1.041121 11.996094,-0.964843 8.850672,0.113713 14.179202,3.422422 17.697262,8.126953 3.51807,4.70453 5.09115,11.019974 5.36524,16.867187 0.42748,9.119788 -6.26172,18.117188 -6.26172,18.117188 l -1.39453,1.804687 6.01367,5.597656 -4.32617,5.355469 -6.89649,-5.554687 -1.55468,1.160156 c 0,0 -1.93918,1.44637 -4.671879,2.908203 -2.732701,1.461833 -6.242724,2.8125 -8.75,2.8125 -10.784717,0 -17.00463,-5.878056 -20.902343,-12.025391 C 64.406974,82.639775 63.21875,76.472656 63.21875,76.472656 l -0.388672,-2.054687 -29.947266,0.298828 -0.394531,0.140625 c 0,0 -4.406972,1.746089 -10.767578,5.441406 3.670032,-4.394592 7.296875,-8.621094 7.296875,-8.621094 L 29.625,70.974609 v -2.304687 h 6.587891 V 31.3125 h -4.455079 v -7.224609 c 2.420061,-0.176551 7.7505,-0.369141 20.167969,-0.369141 z"
       style="color:#000000;font-style:normal;font-variant:normal;font-weight:normal;font-stretch:normal;font-size:medium;line-height:normal;font-family:sans-serif;font-variant-ligatures:normal;font-variant-position:normal;font-variant-caps:normal;font-variant-numeric:normal;font-variant-alternates:normal;font-feature-settings:normal;text-indent:0;text-align:start;text-decoration:none;text-decoration-line:none;text-decoration-style:solid;text-decoration-color:#000000;letter-spacing:normal;word-spacing:normal;text-transform:none;writing-mode:lr-tb;direction:ltr;text-orientation:mixed;dominant-baseline:auto;baseline-shift:baseline;text-anchor:start;white-space:normal;shape-padding:0;clip-rule:nonzero;display:inline;overflow:visible;visibility:visible;opacity:1;isolation:auto;mix-blend-mode:normal;color-interpolation:sRGB;color-interpolation-filters:linearRGB;solid-color:#000000;solid-opacity:1;vector-effect:none;fill:#000000;fill-opacity:1;fill-rule:nonzero;stroke:none;stroke-width:5;stroke-linecap:butt;stroke-linejoin:miter;stroke-miterlimit:4;stroke-dasharray:none;stroke-dashoffset:0;stroke-opacity:1;color-rendering:auto;image-rendering:auto;shape-rendering:auto;text-rendering:auto;enable-background:accumulate" />
    <path
       id="path4643"
       d="m 48.253906,28.380859 v 2.5 38.669922 h 9.855469 L 58.75,69.109375 c 0,0 11.21875,-7.577959 11.21875,-20.554687 0,-12.99657 -11.488281,-19.816407 -11.488281,-19.816407 l -0.59375,-0.357422 z m 5,5 h 3.148438 c 1.317639,0.870803 8.566406,6.027951 8.566406,15.173829 0,9.081519 -7.100517,14.913796 -8.515625,15.996093 h -3.199219 z"
       style="color:#000000;font-style:normal;font-variant:normal;font-weight:normal;font-stretch:normal;font-size:medium;line-height:normal;font-family:sans-serif;font-variant-ligatures:normal;font-variant-position:normal;font-variant-caps:normal;font-variant-numeric:normal;font-variant-alternates:normal;font-feature-settings:normal;text-indent:0;text-align:start;text-decoration:none;text-decoration-line:none;text-decoration-style:solid;text-decoration-color:#000000;letter-spacing:normal;word-spacing:normal;text-transform:none;writing-mode:lr-tb;direction:ltr;text-orientation:mixed;dominant-baseline:auto;baseline-shift:baseline;text-anchor:start;white-space:normal;shape-padding:0;clip-rule:nonzero;display:inline;overflow:visible;visibility:visible;opacity:1;isolation:auto;mix-blend-mode:normal;color-interpolation:sRGB;color-interpolation-filters:linearRGB;solid-color:#000000;solid-opacity:1;vector-effect:none;fill:#000000;fill-opacity:1;fill-rule:nonzero;stroke:none;stroke-width:5;stroke-linecap:butt;stroke-linejoin:miter;stroke-miterlimit:4;stroke-dasharray:none;stroke-dashoffset:0;stroke-opacity:1;color-rendering:auto;image-rendering:auto;shape-rendering:auto;text-rendering:auto;enable-background:accumulate" />
    <path
       id="path4645"
       d="m 89.832031,48.958984 c -0.127391,-0.0076 -3.995545,-0.226663 -7.572265,2.640625 -3.635846,2.914686 -6.777095,8.790303 -6.675782,19.63086 0.09274,9.922976 1.525348,15.154163 3.320313,18.195312 0.897482,1.520575 1.924671,2.481937 2.867187,3.021485 0.471258,0.269773 0.913977,0.432525 1.28125,0.523437 0.367274,0.09091 0.837891,0.111328 0.837891,0.111328 l 2.625,0.0078 -0.123047,-2.623047 c 0,0 0.103908,-7.143114 3.679688,-9.394531 1.840536,-1.158857 4.631695,-1.340661 7.023437,-1.060547 2.391742,0.280114 4.171877,0.912109 4.171877,0.912109 l 3.01172,1.074219 0.3164,-3.179688 c 0,0 0.73147,-7.027588 -0.55859,-14.251953 -0.64503,-3.612182 -1.77398,-7.336914 -4.00195,-10.365234 -2.206615,-2.999278 -5.738587,-5.199984 -10.203129,-5.242188 z m -0.328125,4.976563 0.101563,0.0078 h 0.103515 c 3.030363,0 4.784909,1.162949 6.298828,3.220703 1.51392,2.057755 2.541485,5.111999 3.107422,8.28125 0.739069,4.138782 0.721112,7.623968 0.625,10.056641 -0.859147,-0.203596 -0.894699,-0.320262 -2.0625,-0.457031 -2.984965,-0.349591 -6.878676,-0.338108 -10.269531,1.796875 -2.977413,1.874668 -4.342025,4.695862 -5.115234,7.320312 -0.839595,-2.491304 -1.644849,-6.116039 -1.708985,-12.978515 -0.09244,-9.891254 2.577484,-13.897762 4.802735,-15.681641 2.22525,-1.783879 4.117187,-1.566406 4.117187,-1.566406 z"
       style="color:#000000;font-style:normal;font-variant:normal;font-weight:normal;font-stretch:normal;font-size:medium;line-height:normal;font-family:sans-serif;font-variant-ligatures:normal;font-variant-position:normal;font-variant-caps:normal;font-variant-numeric:normal;font-variant-alternates:normal;font-feature-settings:normal;text-indent:0;text-align:start;text-decoration:none;text-decoration-line:none;text-decoration-style:solid;text-decoration-color:#000000;letter-spacing:normal;word-spacing:normal;text-transform:none;writing-mode:lr-tb;direction:ltr;text-orientation:mixed;dominant-baseline:auto;baseline-shift:baseline;text-anchor:start;white-space:normal;shape-padding:0;clip-rule:nonzero;display:inline;overflow:visible;visibility:visible;opacity:1;isolation:auto;mix-blend-mode:normal;color-interpolation:sRGB;color-interpolation-filters:linearRGB;solid-color:#000000;solid-opacity:1;vector-effect:none;fill:#000000;fill-opacity:1;fill-rule:nonzero;stroke:none;stroke-width:5;stroke-linecap:butt;stroke-linejoin:miter;stroke-miterlimit:4;stroke-dasharray:none;stroke-dashoffset:0;stroke-opacity:1;color-rendering:auto;image-rendering:auto;shape-rendering:auto;text-rendering:auto;enable-background:accumulate" />
  </g>
  <g
     id="layer4" />
</svg>
