<?xml version="1.0" encoding="UTF-8" standalone="no"?>
<svg
   xmlns:dc="http://purl.org/dc/elements/1.1/"
   xmlns:cc="http://creativecommons.org/ns#"
   xmlns:rdf="http://www.w3.org/1999/02/22-rdf-syntax-ns#"
   xmlns:svg="http://www.w3.org/2000/svg"
   xmlns="http://www.w3.org/2000/svg"
   version="1.1"
   id="svg2"
   width="128"
   height="129.33333"
   viewBox="0 0 128 129.33333">
  <metadata
     id="metadata8">
    <rdf:RDF>
      <cc:Work
         rdf:about="">
        <dc:format>image/svg+xml</dc:format>
        <dc:type
           rdf:resource="http://purl.org/dc/dcmitype/StillImage" />
        <dc:title></dc:title>
      </cc:Work>
    </rdf:RDF>
  </metadata>
  <defs
     id="defs6" />
  <g
     id="layer1"
     style="opacity:1" />
  <g
     style="opacity:1"
     id="layer3">
    <path
       id="path4647"
       d="m 61.976562,17.503906 -0.01758,0.002 c 0,0 -6.701654,0.270016 -14.242187,2.544922 -7.540533,2.274906 -16.325008,6.600123 -19.888672,15.308594 l -2.238281,5.470703 5.484375,-2.203125 c 4.534482,-1.821955 8.292547,-2.117417 10.898437,-1.984375 1.514974,0.07735 1.624964,0.212433 2.246094,0.367188 v 51.685546 c -1.83003,0.424726 -4.405999,1.202743 -7.751953,3.173829 -5.350044,3.151685 -11.61079,9.054899 -15.261719,19.515629 l -2.402344,6.8789 6.119141,-3.95703 c 7.619053,-4.92745 14.85101,-8.1214 22.890625,-9.00195 3.834715,-0.42 10.484348,0.5353 15.947266,1.68164 5.462917,1.14634 9.820312,2.41211 9.820312,2.41211 l 1.882813,0.54687 12.714843,-22.021482 H 68.810547 V 70.347656 l 9.171875,0.109375 0.189453,-0.02734 c 0,0 6.438345,-0.8937 12.898437,-4.607422 6.460093,-3.713723 13.212228,-10.69369 13.087888,-22.007813 -0.0757,-6.89089 -2.97383,-12.278115 -7.115231,-16.0625 C 92.901567,23.967569 87.616245,21.658467 82.451172,20.169922 72.121025,17.192831 61.994141,17.503906 61.994141,17.503906 Z m 0.167969,4.998047 c 0.01875,-4.62e-4 9.532465,-0.233319 18.921875,2.472656 4.699334,1.354322 9.295236,3.445667 12.603516,6.46875 3.30828,3.023084 5.427,6.849158 5.488281,12.425782 0.102997,9.37248 -5.063846,14.448017 -10.580078,17.61914 -5.418743,3.11508 -10.795758,3.933941 -10.988281,3.962891 L 63.810547,65.287109 V 92.923828 H 79.517578 L 73.050781,104.125 c -1.28837,-0.36112 -3.671033,-1.06712 -8.265625,-2.03125 -5.66397,-1.18853 -12.383353,-2.321884 -17.515625,-1.75977 -6.395361,0.70047 -12.282804,2.76637 -18.02539,5.72461 2.99027,-4.91928 6.567958,-8.00253 9.759765,-9.882809 4.498121,-2.649821 7.97461,-2.992187 7.97461,-2.992187 L 49.21875,92.951172 V 33.208984 l -1.617188,-0.611328 c 0,0 -2.137262,-0.782064 -5.373046,-0.947265 -1.691373,-0.08635 -3.765064,0.02244 -6.082032,0.40625 3.451509,-3.428946 8.260816,-5.784859 13.013672,-7.21875 6.842528,-2.064325 12.947946,-2.334337 12.984375,-2.335938 z"
       style="color:#000000;font-style:normal;font-variant:normal;font-weight:normal;font-stretch:normal;font-size:medium;line-height:normal;font-family:sans-serif;font-variant-ligatures:normal;font-variant-position:normal;font-variant-caps:normal;font-variant-numeric:normal;font-variant-alternates:normal;font-feature-settings:normal;text-indent:0;text-align:start;text-decoration:none;text-decoration-line:none;text-decoration-style:solid;text-decoration-color:#000000;letter-spacing:normal;word-spacing:normal;text-transform:none;writing-mode:lr-tb;direction:ltr;text-orientation:mixed;dominant-baseline:auto;baseline-shift:baseline;text-anchor:start;white-space:normal;shape-padding:0;clip-rule:nonzero;display:inline;overflow:visible;visibility:visible;opacity:1;isolation:auto;mix-blend-mode:normal;color-interpolation:sRGB;color-interpolation-filters:linearRGB;solid-color:#000000;solid-opacity:1;vector-effect:none;fill:#000000;fill-opacity:1;fill-rule:nonzero;stroke:none;stroke-width:5;stroke-linecap:butt;stroke-linejoin:miter;stroke-miterlimit:4;stroke-dasharray:none;stroke-dashoffset:0;stroke-opacity:1;color-rendering:auto;image-rendering:auto;shape-rendering:auto;text-rendering:auto;enable-background:accumulate" />
    <path
       id="path4649"
       d="m 75.490234,29.626953 c -2.908394,-0.207664 -6.159871,0.167533 -9.689453,1.113281 l -1.853515,0.496094 v 1.919922 29.351562 h 16.361328 l 0.513672,-0.246093 c 0,0 2.373437,-1.169018 4.537109,-3.773438 2.163672,-2.60442 4.275391,-6.808372 4.275391,-12.728515 0,-5.921354 -2.197254,-10.969103 -6.513672,-13.746094 -2.158209,-1.388496 -4.722465,-2.179055 -7.63086,-2.386719 z m -0.419922,4.990235 c 2.215018,0.15248 3.991204,0.730137 5.345704,1.601562 2.709,1.74285 4.21875,4.775929 4.21875,9.541016 0,4.766297 -1.585614,7.686893 -3.121094,9.535156 -1.181272,1.421901 -2.042069,1.969659 -2.466797,2.21289 H 68.947266 V 35.208984 c 2.289617,-0.470914 4.382415,-0.71162 6.123046,-0.591796 z"
       style="color:#000000;font-style:normal;font-variant:normal;font-weight:normal;font-stretch:normal;font-size:medium;line-height:normal;font-family:sans-serif;font-variant-ligatures:normal;font-variant-position:normal;font-variant-caps:normal;font-variant-numeric:normal;font-variant-alternates:normal;font-feature-settings:normal;text-indent:0;text-align:start;text-decoration:none;text-decoration-line:none;text-decoration-style:solid;text-decoration-color:#000000;letter-spacing:normal;word-spacing:normal;text-transform:none;writing-mode:lr-tb;direction:ltr;text-orientation:mixed;dominant-baseline:auto;baseline-shift:baseline;text-anchor:start;white-space:normal;shape-padding:0;clip-rule:nonzero;display:inline;overflow:visible;visibility:visible;opacity:1;isolation:auto;mix-blend-mode:normal;color-interpolation:sRGB;color-interpolation-filters:linearRGB;solid-color:#000000;solid-opacity:1;vector-effect:none;fill:#000000;fill-opacity:1;fill-rule:nonzero;stroke:none;stroke-width:5;stroke-linecap:butt;stroke-linejoin:miter;stroke-miterlimit:4;stroke-dasharray:none;stroke-dashoffset:0;stroke-opacity:1;color-rendering:auto;image-rendering:auto;shape-rendering:auto;text-rendering:auto;enable-background:accumulate" />
  </g>
  <g
     id="layer4" />
</svg>
