<?xml version="1.0" encoding="UTF-8" standalone="no"?>
<svg
   xmlns:dc="http://purl.org/dc/elements/1.1/"
   xmlns:cc="http://creativecommons.org/ns#"
   xmlns:rdf="http://www.w3.org/1999/02/22-rdf-syntax-ns#"
   xmlns:svg="http://www.w3.org/2000/svg"
   xmlns="http://www.w3.org/2000/svg"
   version="1.1"
   id="svg2"
   width="128"
   height="129.33333"
   viewBox="0 0 128 129.33333">
  <metadata
     id="metadata8">
    <rdf:RDF>
      <cc:Work
         rdf:about="">
        <dc:format>image/svg+xml</dc:format>
        <dc:type
           rdf:resource="http://purl.org/dc/dcmitype/StillImage" />
        <dc:title></dc:title>
      </cc:Work>
    </rdf:RDF>
  </metadata>
  <defs
     id="defs6" />
  <g
     id="layer1"
     style="opacity:1" />
  <g
     style="opacity:1"
     id="layer3">
    <path
       id="path4604"
       d="m 91.960938,31.171875 -0.501954,0.03906 c -8.575612,0.680603 -11.996953,0.657435 -17.65625,1.382812 -3.760466,0.481996 -7.295116,3.365907 -9.949218,8.869141 -2.654103,5.503233 -4.738011,13.805504 -6.056641,26.367187 -0.951801,9.067157 -0.851379,18.216104 0.0059,25.597656 0.42862,3.690777 1.041714,6.934906 1.851563,9.568356 0.809849,2.63346 1.630456,4.71501 3.501953,6.13477 1.988904,1.50883 4.315375,1.77261 7.351562,2.14453 3.036188,0.37192 6.616342,0.53026 10.15625,0.50391 3.539909,-0.0264 7.023142,-0.23796 9.882813,-0.64453 1.429836,-0.20329 2.700082,-0.4492 3.804687,-0.78516 1.104606,-0.33596 2.074692,-0.5956 3.039063,-1.7207 0.842406,-0.98281 0.803678,-1.45244 1.013672,-2.21485 0.209994,-0.76241 0.405079,-1.67931 0.603515,-2.77344 0.396874,-2.18824 0.794575,-5.073123 1.164068,-8.457026 0.73897,-6.767807 1.35489,-15.5114 1.50195,-24.326172 0.14706,-8.814772 -0.16484,-17.676063 -1.34571,-24.78125 -0.590426,-3.552593 -1.38339,-6.666211 -2.554682,-9.207031 -1.171293,-2.540821 -2.797264,-4.704735 -5.333985,-5.541016 z m -0.853516,5.082031 c 0.577,0.295017 1.351121,1.028298 2.125,2.707032 0.868273,1.883498 1.617774,4.646608 2.164062,7.933593 1.092576,6.573971 1.423378,15.242585 1.279297,23.878907 -0.14408,8.636321 -0.753618,17.264099 -1.474609,23.867187 -0.360496,3.301544 -0.749666,6.102545 -1.113281,8.107425 -0.181808,1.00243 -0.360696,1.81085 -0.50586,2.33789 -0.04181,0.15179 -0.08959,0.22447 -0.142578,0.33203 0.04587,-0.0793 0.01334,-0.0227 -0.542969,0.14648 -0.716605,0.21795 -1.789365,0.4412 -3.054687,0.6211 -2.530645,0.35979 -5.853093,0.56872 -9.214844,0.59375 -3.361751,0.025 -6.778871,-0.13228 -9.509765,-0.4668 -2.730895,-0.33452 -4.941776,-1.16778 -4.939454,-1.16602 -0.115084,-0.0873 -1.068387,-1.42173 -1.74414,-3.61914 -0.675753,-2.197399 -1.260415,-5.200032 -1.664063,-8.675778 -0.807294,-6.95149 -0.911135,-15.818287 0,-24.498046 1.284478,-12.23634 3.35522,-20.089348 5.587891,-24.71875 2.232671,-4.629403 4.315606,-5.855871 6.080078,-6.082032 5.159064,-0.66126 8.782507,-0.69502 16.669922,-1.298828 z"
       style="color:#000000;font-style:normal;font-variant:normal;font-weight:normal;font-stretch:normal;font-size:medium;line-height:normal;font-family:sans-serif;font-variant-ligatures:normal;font-variant-position:normal;font-variant-caps:normal;font-variant-numeric:normal;font-variant-alternates:normal;font-feature-settings:normal;text-indent:0;text-align:start;text-decoration:none;text-decoration-line:none;text-decoration-style:solid;text-decoration-color:#000000;letter-spacing:normal;word-spacing:normal;text-transform:none;writing-mode:lr-tb;direction:ltr;text-orientation:mixed;dominant-baseline:auto;baseline-shift:baseline;text-anchor:start;white-space:normal;shape-padding:0;clip-rule:nonzero;display:inline;overflow:visible;visibility:visible;opacity:1;isolation:auto;mix-blend-mode:normal;color-interpolation:sRGB;color-interpolation-filters:linearRGB;solid-color:#000000;solid-opacity:1;vector-effect:none;fill:#000000;fill-opacity:1;fill-rule:nonzero;stroke:none;stroke-width:5;stroke-linecap:butt;stroke-linejoin:miter;stroke-miterlimit:4;stroke-dasharray:none;stroke-dashoffset:0;stroke-opacity:1;color-rendering:auto;image-rendering:auto;shape-rendering:auto;text-rendering:auto;enable-background:accumulate" />
    <path
       id="path4606"
       d="m 68.660156,34.216797 c -8.176028,-0.06929 -16.84017,0.307732 -23.792968,1.130859 -3.4764,0.411564 -6.517102,0.9291 -8.9375,1.601563 -1.2102,0.336231 -2.265553,0.704452 -3.199219,1.183593 -0.933666,0.479142 -1.831989,1.031924 -2.458985,2.189454 -0.525985,0.97105 -0.780321,1.901764 -1.273437,3.541015 -0.493116,1.639252 -1.077722,3.774993 -1.708985,6.28125 -1.262524,5.012515 -2.705525,11.502777 -3.894531,18.347657 -1.189005,6.844879 -2.125864,14.035524 -2.363281,20.486328 -0.237417,6.450803 0.117622,12.122234 2.042969,16.324214 0.61764,1.34798 1.144624,2.35318 1.785156,3.20508 0.640532,0.8519 1.514749,1.59124 2.503906,1.9375 1.978315,0.69253 3.126469,0.15235 4.695313,0.15235 0.523553,0 2.303308,0.20266 4.402344,0.46289 2.099035,0.26023 4.635933,0.56345 7.236328,0.71484 2.600394,0.15139 5.25872,0.15994 7.708984,-0.22656 2.450264,-0.3865 4.818822,-1.12924 6.5,-3.02735 1.809073,-2.0425 2.212113,-4.68658 2.482422,-7.7539 0.270309,-3.067323 0.2186,-6.617852 0.09766,-10.306642 -0.241888,-7.377582 -0.721545,-15.411398 0.06836,-20.029297 0.861041,-5.033782 2.625036,-12.109056 4.582031,-18.435547 1.956994,-6.326491 4.331159,-12.137841 5.537109,-13.826172 l 2.794922,-3.91211 z m -4.085937,5.076172 c -1.439132,3.101554 -2.83845,6.775059 -4.214844,11.224609 -2.016169,6.517789 -3.81239,13.691666 -4.732422,19.070313 -0.99117,5.79453 -0.376304,13.78934 -0.138672,21.037109 0.118816,3.623885 0.154821,7.037617 -0.08008,9.70312 -0.234899,2.66551 -0.929626,4.52381 -1.244141,4.87891 -0.442409,0.4995 -1.669742,1.11005 -3.535156,1.4043 -1.865414,0.29425 -4.242266,0.31162 -6.642578,0.17187 -2.400312,-0.13974 -4.83052,-0.42772 -6.910156,-0.68554 -2.079637,-0.25783 -3.691555,-0.5 -5.017578,-0.5 -2.13031,0 -3.171612,0.0839 -3.042969,0.1289 0.06432,0.0225 0.09838,0.11924 -0.160156,-0.22461 -0.258531,-0.34384 -0.689612,-1.08806 -1.236328,-2.28125 -1.251012,-2.73028 -1.816325,-7.958005 -1.591797,-14.058591 0.224528,-6.100585 1.129445,-13.114315 2.292968,-19.8125 1.163524,-6.698185 2.583538,-13.089599 3.816407,-17.984375 0.616434,-2.447388 1.187792,-4.522743 1.65039,-6.060546 0.462599,-1.537804 0.961577,-2.750579 0.88086,-2.601563 -0.181727,0.335496 -0.121193,0.118509 0.345703,-0.121094 0.466895,-0.239603 1.254702,-0.538253 2.255859,-0.816406 2.002315,-0.556306 4.863041,-1.05978 8.185547,-1.453125 5.533217,-0.655066 12.37199,-0.952831 19.119141,-1.019531 z"
       style="color:#000000;font-style:normal;font-variant:normal;font-weight:normal;font-stretch:normal;font-size:medium;line-height:normal;font-family:sans-serif;font-variant-ligatures:normal;font-variant-position:normal;font-variant-caps:normal;font-variant-numeric:normal;font-variant-alternates:normal;font-feature-settings:normal;text-indent:0;text-align:start;text-decoration:none;text-decoration-line:none;text-decoration-style:solid;text-decoration-color:#000000;letter-spacing:normal;word-spacing:normal;text-transform:none;writing-mode:lr-tb;direction:ltr;text-orientation:mixed;dominant-baseline:auto;baseline-shift:baseline;text-anchor:start;white-space:normal;shape-padding:0;clip-rule:nonzero;display:inline;overflow:visible;visibility:visible;opacity:1;isolation:auto;mix-blend-mode:normal;color-interpolation:sRGB;color-interpolation-filters:linearRGB;solid-color:#000000;solid-opacity:1;vector-effect:none;fill:#000000;fill-opacity:1;fill-rule:nonzero;stroke:none;stroke-width:5;stroke-linecap:butt;stroke-linejoin:miter;stroke-miterlimit:4;stroke-dasharray:none;stroke-dashoffset:0;stroke-opacity:1;color-rendering:auto;image-rendering:auto;shape-rendering:auto;text-rendering:auto;enable-background:accumulate" />
    <path
       id="path4608"
       d="M 83.820312,8.8691406 C 79.575113,8.5756014 74.097191,8.5975074 68.365234,8.875 62.633278,9.1524926 56.664635,9.6864487 51.494141,10.447266 c -5.170495,0.760817 -9.436164,1.646817 -12.31836,3.066406 -2.42183,1.192842 -4.171024,2.259559 -5.447265,3.738281 -1.276241,1.478722 -1.815675,3.421238 -1.771485,5.210938 0.08838,3.579399 1.555613,7.188829 2.417969,13.888671 l 0.283203,2.199219 2.216797,-0.01758 c 0,0 12.115743,-0.10406 24.916016,-0.550781 6.400136,-0.223361 12.971114,-0.531649 18.324218,-0.960938 2.676552,-0.214644 5.045416,-0.458681 6.972657,-0.746093 1.927241,-0.287413 3.275371,-0.483815 4.613281,-1.169922 2.170154,-1.112899 3.307236,-3.273475 3.787109,-5.388672 0.479874,-2.115198 0.444002,-4.369745 0.212891,-6.597656 C 95.23895,18.663319 93.948856,14.361911 93.179688,12.285156 92.744318,11.109659 91.93109,10.628494 91.277344,10.294922 90.623598,9.9613501 89.966458,9.7624292 89.226562,9.5859375 87.746772,9.2329541 85.942912,9.0159102 83.820312,8.8691406 Z m -0.34375,4.9882814 c 1.964022,0.135804 3.583731,0.351803 4.589844,0.591797 0.327289,0.07807 0.44383,0.133239 0.611328,0.195312 0.638068,1.849104 1.687491,5.488115 2.050782,8.990235 0.197031,1.899384 0.171267,3.711761 -0.115235,4.974609 -0.286501,1.262848 -0.691903,1.789718 -1.193359,2.046875 0.0021,-0.0011 -1.329977,0.414289 -3.070313,0.673828 -1.740336,0.25954 -4.025896,0.497815 -6.634765,0.707031 -5.217738,0.418434 -11.739142,0.727311 -18.097656,0.949219 -11.63464,0.406041 -20.870287,0.482415 -22.673829,0.5 -0.883819,-5.579486 -1.943978,-9.433289 -1.986328,-11.148437 -0.02431,-0.984665 0.05181,-1.233434 0.556641,-1.81836 0.504832,-0.584925 1.703235,-1.453733 3.871094,-2.521484 1.707493,-0.841004 5.882812,-1.874396 10.83789,-2.603516 4.955079,-0.729119 10.796631,-1.25486 16.384766,-1.52539 5.588135,-0.27053 10.941097,-0.283328 14.86914,-0.01172 z"
       style="color:#000000;font-style:normal;font-variant:normal;font-weight:normal;font-stretch:normal;font-size:medium;line-height:normal;font-family:sans-serif;font-variant-ligatures:normal;font-variant-position:normal;font-variant-caps:normal;font-variant-numeric:normal;font-variant-alternates:normal;font-feature-settings:normal;text-indent:0;text-align:start;text-decoration:none;text-decoration-line:none;text-decoration-style:solid;text-decoration-color:#000000;letter-spacing:normal;word-spacing:normal;text-transform:none;writing-mode:lr-tb;direction:ltr;text-orientation:mixed;dominant-baseline:auto;baseline-shift:baseline;text-anchor:start;white-space:normal;shape-padding:0;clip-rule:nonzero;display:inline;overflow:visible;visibility:visible;opacity:1;isolation:auto;mix-blend-mode:normal;color-interpolation:sRGB;color-interpolation-filters:linearRGB;solid-color:#000000;solid-opacity:1;vector-effect:none;fill:#000000;fill-opacity:1;fill-rule:nonzero;stroke:none;stroke-width:5;stroke-linecap:butt;stroke-linejoin:miter;stroke-miterlimit:4;stroke-dasharray:none;stroke-dashoffset:0;stroke-opacity:1;color-rendering:auto;image-rendering:auto;shape-rendering:auto;text-rendering:auto;enable-background:accumulate" />
  </g>
  <g
     id="layer4" />
</svg>
