<?xml version="1.0" encoding="UTF-8" standalone="no"?>
<svg
   xmlns:dc="http://purl.org/dc/elements/1.1/"
   xmlns:cc="http://creativecommons.org/ns#"
   xmlns:rdf="http://www.w3.org/1999/02/22-rdf-syntax-ns#"
   xmlns:svg="http://www.w3.org/2000/svg"
   xmlns="http://www.w3.org/2000/svg"
   version="1.1"
   id="svg2"
   width="128"
   height="129.33333"
   viewBox="0 0 128 129.33333">
  <metadata
     id="metadata8">
    <rdf:RDF>
      <cc:Work
         rdf:about="">
        <dc:format>image/svg+xml</dc:format>
        <dc:type
           rdf:resource="http://purl.org/dc/dcmitype/StillImage" />
        <dc:title></dc:title>
      </cc:Work>
    </rdf:RDF>
  </metadata>
  <defs
     id="defs6" />
  <g
     id="layer1"
     style="opacity:1" />
  <g
     style="opacity:1"
     id="layer3">
    <rect
       y="10.561366"
       x="31.194593"
       height="99.783943"
       width="33.519657"
       id="rect4555"
       style="opacity:1;fill:none;fill-opacity:1;stroke-width:4.78368044;stroke-linecap:butt;stroke-linejoin:miter;stroke-miterlimit:4;stroke-dasharray:none;stroke-dashoffset:0" />
    <g
       style=""
       transform="translate(-397.56037,-432.71544)"
       id="g4630">
      <g
         style=""
         transform="matrix(0.1,0,0,-0.1,0,511)"
         id="g4628">
        <path
           id="path4626"
           d="m 4689.7422,-455.70898 c -10.1669,-0.36418 -19.9165,1.7138 -30.8926,4.17578 l -0.125,0.0273 -0.123,0.0293 c -21.6312,5.08479 -89.5914,7.07674 -105.9395,3.17578 l -0.078,-0.0195 -0.078,-0.0176 c -14.9861,-3.47379 -24.7022,-6.76556 -40.4493,-3.9082 l -0.4687,0.0859 -0.4668,0.10352 c -8.8452,1.95598 -11.912,4.1547 -18.2481,7.35742 -6.3157,3.19247 -13.4142,7.17387 -20.3496,11.60938 -74.8541,47.16309 -121.3598,125.33356 -138.2187,183.25195 -4.1132,13.83517 -4.9414,27.1626 -3.6738,48.67773 l 0,0.0547 0,0.0547 c 0.8723,13.78383 0.5422,33.46309 -0.8321,44.45703 l -0.01,0.0352 -0,0.0352 c -1.2216,9.99981 -2.944,23.97222 -4.7539,36.63477 -1.8099,12.66255 -4.3087,25.445754 -4.7188,26.792967 l -0.1015,0.333984 -0.094,0.337891 c -1.9917,7.263961 -0.9421,8.079549 -0.8223,9.542969 0.1199,1.463419 0.265,2.398774 0.4063,3.316406 0.2826,1.835264 0.5869,3.464537 0.8984,5.240234 0.3275,1.866464 0.5075,3.71069 0.7793,5.640625 -6.9456,0.992632 -13.8066,2.242368 -21.0508,4.740235 -12.1652,4.194714 -24.114,12.763753 -33.5507,24.384765 -30.028,36.6720046 -32.7256,86.034819 -30.3594,116.716797 l 0.01,0.103516 0.01,0.103515 c 0.9643,11.286208 3.8223,22.771446 11.1816,32.583986 6.49,8.65337 15.748,14.26387 25.0039,17.68555 0.2006,2.23757 0.2411,2.38464 0.3731,5.80273 0.2558,6.62799 0.375,14.89787 0.2578,22.83984 -0.2032,13.17657 -1.4101,12.09668 -4.5039,23.5586 -2.986,11.06237 -5.4342,27.74149 -5.2383,60.61718 -25.6267,100.07531 -4.8848,218.4723 54.4375,314.28516 60.007,96.91882 162.2312,170.89453 295.539,170.89453 127.2099,0 231.6303,-64.75445 293.7051,-160.99023 62.0749,-96.23579 83.0492,-223.68617 48.8262,-351.4082 l -0.1387,-0.51954 -0.1601,-0.51172 c -6.2835,-19.98337 -7.4952,-26.66641 -8.6602,-47.53124 -0.6466,-13.59914 0.033,-33.23718 0.4551,-36.66993 14.4584,-6.31126 27.5825,-18.83611 32.5449,-32.486325 l 0.064,-0.181641 0.064,-0.183593 c 5.5681,-16.08708 5.5058,-33.871292 0.6309,-53.382813 l -0.035,-0.144531 -0.039,-0.144531 c -5.3735,-20.47082 -14.8689,-40.90893552 -25.9922,-58.632813 -11.1234,-17.723877 -22.0872,-32.777354 -39.9883,-42.078125 l -0.3711,-0.193359 -0.3789,-0.179688 c -7.4781,-3.573412 -15.0996,-5.805122 -23.125,-7.472656 l 6.6953,-26.376953 -1.1367,-5.605469 c -13.0534,-64.323233 -16.5051,-95.481423 -15.1719,-124.675783 l -0.01,0.10938 c 1.2544,-25.05232 0.3572,-38.07475 -3.7539,-53.44922 l -0.039,-0.14063 -0.039,-0.14062 c -16.2362,-58.00507 -70.0642,-115.82782 -137.2246,-157.75781 l -0.016,-0.01 c -15.3461,-9.60798 -25.9326,-16.37066 -40.0996,-19.33008 -3.5431,-0.74012 -6.9783,-1.13251 -10.3672,-1.2539 z m -2.1445,50.08203 c 0.9252,0.006 1.6344,0.0912 2.2636,0.22265 2.5168,0.52574 9.0481,3.54367 23.7715,12.76172 l 0.016,0.01 0.014,0.008 c 58.8902,36.76086 105.2566,92.29837 115.4961,128.66211 3.1611,11.84203 3.264,14.10465 2.0762,37.83008 l -0,0.0547 -0,0.0547 c -1.5401,33.72492 2.6852,69.38648 15.0274,131.152346 l -13.502,53.197266 30.1719,20.93164 6.082,0.773438 c 8.55,1.08788 22.9275,5.577458 22.9531,5.451172 1.4867,1.025021 12.0599,10.7756579 20.3594,23.9999999 8.5425,13.6114691 16.2663,30.6649451 19.9473,44.6484371 3.8534,15.424792 3.7892,15.351605 0.5781,24.628907 l 0.1289,-0.365235 c -2.0349,5.597379 3.0941,1.414086 -6.1328,3.97461 l -0.096,0.02734 -0.096,0.02734 c -2.4252,0.693767 -5.1796,1.343103 -9.3594,3.439453 -4.1798,2.096351 -9.8112,6.687474 -12.9336,11.753907 -6.2447,10.132862 -5.3949,15.473662 -6.3867,22.525392 l 0.039,-0.26758 c -2.0293,13.3796 -1.7787,30.83276 -0.9922,47.25586 l 0.01,0.0977 0,0.0957 c 1.2813,23.02759 3.9802,37.90149 10.9004,59.91016 l -0.3007,-1.03126 c 30.7372,114.71284 11.3794,227.69252 -42.5352,311.27735 -53.9146,83.58483 -141.1407,138.04297 -251.5938,138.04297 -115.0333,0 -200.1274,-61.87549 -252.9335,-147.16406 -52.8062,-85.28858 -70.4958,-193.79266 -47.8184,-278.42579 l 0.8926,-3.33007 -0.041,-3.44727 c -0.3832,-32.92457 1.674,-43.34501 3.541,-50.26172 1.867,-6.9167 5.9433,-17.26796 6.2285,-35.86328 v -0.008 -0.006 c 0.1318,-8.92846 0.01,-17.89877 -0.2871,-25.51367 -0.2921,-7.56614 -0.2866,-12.15869 -1.6406,-19.00391 -0.9858,-5.20674 -3.3984,-14.613217 -10.9571,-21.541016 -7.6325,-6.995514 -13.746,-8.077902 -19.4219,-9.833984 l -0.047,-0.01367 -0.049,-0.01563 c -3.9825,-1.214793 -3.4562,-1.49044 -3.248,-1.212891 0.2068,0.27574 -0.8278,-0.975056 -1.3301,-6.710937 -1.5214,-20.213438 4.8056,-63.466745 19.1953,-81.0175781 l 0.043,-0.052734 0.043,-0.054687 c 5.2277,-6.447787 6.818,-7.17513 11.0058,-8.619141 4.1879,-1.444011 12.5429,-2.610966 25.8516,-4.36914 l -0.4238,0.05273 c 13.8436,-1.589608 25.2778,-15.064542 28.0644,-24.11914 2.7867,-9.054599 2.3643,-15.976198 1.9043,-22.248047 -0.4599,-6.27185 -1.4129,-11.790115 -2.1035,-15.726563 -0.101,-0.57539 -0.1253,-0.732113 -0.2129,-1.230469 2.038,-8.432447 3.3413,-17.719169 4.8945,-28.585939 1.9058,-13.33354 3.654,-27.53774 4.8809,-37.58008 0,-0.009 9e-4,-0.0187 0,-0.0273 2.0467,-16.39304 2.1945,-36.78802 1.1172,-53.81055 -1.171,-19.89833 -1.0225,-22.24813 1.6934,-31.36718 l 0.025,-0.0801 0.023,-0.0801 c 13.0007,-44.74277 55.9391,-116.60993 116.9219,-155 l 0.08,-0.0508 0.078,-0.0508 c 5.2655,-3.37033 11.2207,-6.7101 16.0098,-9.13086 1.9917,-1.00677 3.97,-1.75227 5.5644,-2.3711 2.735,0.38799 11.3786,0.79227 20.1446,2.82422 l -0.1583,-0.0371 c 36.9611,8.8196 94.4335,4.99747 129.0372,-3.13672 l -0.25,0.0586 c 10.2906,-2.30822 15.0036,-3.00593 17.7793,-2.98828 z m -76.0645,132.59765 c -6.8824,0 -16.4949,-0.70326 -26.1289,8.49219 -3.1724,-2.17718 -6.2831,-3.44292 -8.9766,-4.24414 -8.9232,-2.65437 -15.9152,-1.93187 -23.3925,-0.11523 l -0.334,0.0801 -0.3321,0.0899 c -1.8105,0.49278 -4.1606,0.88704 -8.5371,3.27734 -2.1305,1.16361 -4.8355,3.38858 -7.3066,6.16211 -6.1471,-2.85493 -13.1103,-4.45377 -17.9844,-3.47461 -8.3881,1.68511 -12.1369,4.89333 -15.7265,7.66406 l -0.08,0.0605 -0.08,0.0625 c -1.7246,1.35352 -3.7249,3.92925 -5.6484,6.82422 -2.7803,-0.0472 -5.1537,0.3189 -6.9043,0.72461 -6.6263,1.53561 -8.3356,3.11928 -10.4121,4.22656 l -0.2461,0.13086 -0.2442,0.13672 c -5.8588,3.2946 -14.2804,14.33324 -15.9551,21.7832 -0.075,0.33404 -0.1002,0.61758 -0.1679,0.94336 -4.1291,1.16041 -6.8457,3.03751 -8.6895,4.38867 -11.1838,8.19593 -11.5891,12.47738 -17.3926,21.3711 l 0.1133,-0.17188 c -24.9108,37.49376 -34.0156,70.29394 -34.0156,121.447268 0,8.983352 -0.2393,17.51102 -0.5723,23.605469 -0.018,0.330409 -0.036,0.421923 -0.055,0.738281 l -4.8398,3.484375 17.9414,45.17187512 11.3027,-1.50390622 0.3028,-0.048828 c 9.8235,-1.552916 17.304,-3.6149802 26.4531,-8.7597658 l 0.1445,-0.08008 0.1426,-0.08203 c 8.7255,-5.05888 17.731,-13.282368 22.8731,-23.455078 5.1421,-10.172711 6.9279,-20.490974 8.289,-32.583985 l 0,-0.01563 0,-0.01758 c 1.1121,-9.999303 3.8506,-25.125296 4.1641,-26.279297 l 0.035,-0.130859 0.033,-0.130859 c 0.5119,-1.96796 0.9037,-4.075978 1.3145,-6.16211 6.711,0.0071 11.7965,-2.254478 15.1562,-4.124998 1.2939,-0.71314 2.3899,-1.47664 3.4649,-2.24414 5.2588,2.15921 11.3942,2.78511 16.0019,1.93945 10.944,-2.00856 14.6517,-6.74147 18.1758,-10.26562 0.1594,-0.15936 0.2684,-0.36933 0.4239,-0.53321 1.5518,0.83225 3.0458,1.53664 4.2968,1.95117 l 0.09,0.0312 0.092,0.0293 c 9.6091,3.10242 20.025,3.03302 29.957,-2.61523 1.2616,-0.71749 2.4956,-1.60595 3.6856,-2.62696 l 19.3085,3.61133 0.2344,0.0391 c 7.9263,1.32757 12.7958,2.93636 25.0957,-1.14843 2.1716,-0.62369 5.9359,-1.61218 10.9082,-5.67774 2.4287,2.75034 5.2226,5.2165 8.1778,6.76367 6.5492,3.42888 11.7776,3.69826 15.6679,3.81836 l 0.3867,0.0117 h 0.3868 c 3.3081,0 7.7646,0.18865 14.3925,-2.50976 0.8507,-0.34631 1.7051,-0.95762 2.5625,-1.44727 2.4019,2.72717 4.7356,5.05299 6.3106,5.92969 l 0.1035,0.0586 0.1035,0.0566 c 4.4705,2.43356 8.7269,3.82971 14.211,4.23243 3.4323,0.25205 8.4159,0.77973 13.9414,-1.7168 0.798,0.60385 1.5832,1.21863 2.4746,1.74023 l 0.2461,0.14453 0.25,0.13868 c 3.3552,1.86217 8.2563,4.154902 15.1133,4.246089 0.3383,1.48125 0.6154,3.032805 1.0058,4.451172 l -0.057,-0.210937 c 1.1337,4.264116 3.5662,18.624773 4.4062,27.472656 l -0.014,-0.15625 c 1.4864,16.770183 5.8717,32.560286 16.6758,45.048828 10.8042,12.488542 26.4783,18.8989044 42.1856,21.2753908 l 0.2226,0.033203 11.2207,1.49218748 17.9414,-45.16992138 -4.8632,-3.5 c -0.012,-0.202395 -0.024,-0.254809 -0.035,-0.462891 -0.3312,-5.896926 -0.5703,-14.168279 -0.5703,-22.890625 0,-25.740283 -1.4329,-41.868842 -5.6738,-58.298832 -6.5051,-25.6581 -19.9337,-55.3419 -36.7383,-75.06054 l 0.2656,0.31836 -42.5137,-51.59375 -1.4765,9.69726 c -0.376,-0.0959 -0.4485,-0.18753 -0.8614,-0.2832 -1.8891,-0.4378 -4.5262,-0.79817 -7.5996,-0.66797 -1.362,-1.97907 -2.7124,-3.71836 -3.8632,-4.78906 l -0.2071,-0.19141 -0.2129,-0.1875 c -3.2125,-2.8564 -6.1129,-5.83185 -13.3359,-8.5293 -3.6115,-1.34872 -8.9493,-2.63923 -15.4688,-1.37109 -3.0544,0.59415 -6.0621,1.92227 -8.7714,3.56836 -1.8576,-2.31165 -3.9216,-4.47713 -6.3457,-5.96484 -6.6105,-4.05695 -10.6722,-4.04091 -12.627,-4.26953 -3.5136,-0.54022 -6.9991,-1.25373 -13.1465,-0.52735 -3.7306,0.44081 -9.3308,2.79975 -14.2988,6.41016 -3.8194,-3.53144 -8.1616,-6.26245 -11.6152,-7.32813 -6.29,-1.94086 -10.2186,-1.75586 -13.9395,-1.75586 z m 13.4805,27.00196 0.3691,0.98046 c -0.016,-0.044 0.029,0.22394 0.019,0.19141 -0.1505,-0.39879 -0.2275,-0.76886 -0.3886,-1.17187 z m -178.2207,54.69531 c 0.1529,-0.0363 0.3125,0.10945 0.3125,0.30859 0,0.956 0.058,1.8904 0.086,2.83399 -0.8806,-2.24445 -0.6886,-3.07368 -0.3984,-3.14258 z m 164.1562,28.37109 -0.066,0.0215 c 0.014,-0.005 0.01,-0.005 0.023,-0.01 0.017,-0.005 0.027,-0.007 0.043,-0.0117 z m 14.7051,2.27344 0.4727,0.0879 -1.043,7.08203 0.02,-0.14453 c 0.3229,-2.38582 0.3482,-4.65984 0.5508,-7.02539 z m -256.2754,74.310547 c 0.092,0.236936 0.171,0.413179 0.1856,1.068359 -0.061,-0.350827 -0.1435,-0.8177 -0.1856,-1.068359 z m -0.8828,6.980469 c -0.032,0.119188 -0.01,0.09925 -0.041,0.222656 l -0.1934,0.671875 c 0.088,-0.289219 0.1489,-0.60334 0.2344,-0.894531 z m 33.6484,34.86914 c -0.043,0.484493 -0.096,1.43907 -0.1328,1.771485 -0.071,0.638789 -0.1453,1.015224 -0.064,0.589843 0.052,-0.2717 -0.6036,-0.375337 0.1972,-2.361328 z M 4820.9023,-44.5 c 0.685,1.78883 0.1332,1.962546 0.1875,2.242188 0.088,0.451493 0.016,0.10639 -0.053,-0.498047 -0.037,-0.32149 -0.091,-1.266235 -0.1348,-1.744141 z m -180.0566,5.058594 c -8.2949,-0.209351 -14.3704,2.361875 -18.8652,4.246094 -7.0236,2.925155 -11.9611,6.722108 -16.1465,10.925781 -5.2631,-5.100419 -11.6644,-9.374915 -19.834,-12.435547 -14.1229,-5.424384 -26.2943,-1.808828 -35.9609,3.304687 -9.6838,5.122593 -18.0384,12.771513 -23.5176,23.9140629 -5.1718,10.4039292 -7.4575,23.4314641 -6.2813,36.1972661 1.177,12.773906 4.8547,25.877729 10.6055,42.761718 6.6661,19.997944 14.2243,38.785534 21.5352,54.068364 3.6582,7.64733 7.2294,14.39848 10.8632,20.26562 3.6225,5.84883 6.3582,10.62098 13.3145,16.19336 8.1294,6.54532 18.9663,10.94993 30.1582,10.66016 11.1612,-0.28898 21.5526,-5.11921 29.4062,-11.84571 11.8032,-9.98472 13.3569,-17.09411 18.793,-28.03125 5.4538,-10.97275 11.131,-24.07407 16.4317,-37.539059 5.3006,-13.464985 10.1845,-27.203724 13.8808,-39.408203 3.6963,-12.20448 6.6582,-21.032965 6.6582,-33.15625 v -0.226563 l -0,-0.226563 c -0.4116,-22.7832786 -9.3631,-43.060518 -31.6914,-54.224609 l -0.2891,-0.144531 -0.2929,-0.136719 c -4.6397,-2.172025 -10.4486,-4.952249 -18.7637,-5.162109 z m -16.4668,45.0722654 c 1.5095,1.7355391 1.1939,2.7460199 1.1699,2.7011718 -0.025,-0.047167 -0.6962,-1.6178066 -1.1699,-2.7011718 z m -53.4492,8.3828126 c 2.2112,2.403248 4.9357,5.559779 6.2969,8.798828 l -0.1621,-0.394531 c 1.3798,3.446452 2.5779,6.336153 4.3027,9.558593 1.7247,3.222441 1.4504,8.074888 13.8203,13.820313 6.1849,2.872712 17.6918,2.645474 24.1445,-1.132813 6.4527,-3.778286 8.5917,-7.766856 10.0606,-10.396484 2.8987,-5.189361 3.2825,-7.830125 4.0176,-10.800781 0.2655,-1.039635 2.2685,-5.444635 4.6796,-8.601563 0.2289,-0.299581 0.4303,-0.395644 0.6739,-0.669922 1.2907,2.216911 2.8303,4.946828 2.9551,6.738282 -0.07,-1.087679 -1.3756,8.228295 -4.4493,18.376953 -3.1579,10.426901 -7.6711,23.187574 -12.5488,35.578125 -4.8777,12.390551 -10.1594,24.501115 -14.6777,33.591798 -1.4876,2.99298 -3.1786,5.62934 -4.7305,7.93945 -2.1779,-3.60048 -4.8324,-8.4478 -7.7285,-14.50195 -6.1923,-12.944609 -13.175,-30.207402 -19.2149,-48.332032 l -0.025,-0.08008 -0.027,-0.08203 c -5.2227,-15.323482 -7.6457,-25.535968 -8.1777,-31.310547 -0.4412,-4.78806 -0.082,-6.196007 0.791,-8.099609 z m 240.6758,94.503908 c -41.6229,0 -74.9512,6.59433 -104.6075,21.8418 l -0.021,0.0117 -0.021,0.0117 c -44.6967,23.08956 -68.4781,70.71745 -54.5489,116.98438 8.9697,29.97064 32.4092,53.59178 62.3575,63.12695 l 0.074,0.0234 0.072,0.0234 c 24.0425,7.49377 52.4202,5.67763 78.2441,0.39843 l 0.057,-0.0117 0.057,-0.0117 c 25.5797,-5.35328 50.4192,-14.27188 68.5937,-31.53711 21.0525,-19.99272 29.0723,-49.86432 29.0723,-85.89844 0,-25.83709 -1.7177,-47.5164 -17.293,-64.73438 -15.5753,-17.21797 -37.978,-20.22851 -62.0351,-20.22851 z m -396.6582,3.02734 c -5.0918,-0.0871 -9.3831,-0.008 -13.6328,0.34766 -8.4995,0.7119 -16.9065,3.59402 -22.7344,6.35937 l -0.1504,0.0723 -0.1485,0.0723 c -9.0061,4.42024 -18.4467,11.60997 -24.457,21.23438 -6.0103,9.62441 -8.6018,19.77277 -10.6797,31.28711 l -0.016,0.0859 -0.016,0.0879 c -4.0382,23.31947 -1.8553,49.48637 5.8594,74.66406 8e-4,0.003 0,0.005 0,0.008 8.5725,28.10754 32.2044,48.75015 62.1386,59.51953 26.6884,9.74837 44.6745,12.51469 73.4668,11.75977 21.4274,-0.51714 34.9384,-3.19561 47.4356,-9.58594 l 0.1152,-0.0586 0.1133,-0.0605 c 45.9579,-24.09687 65.9646,-80.10378 43.0977,-126.21289 -22.2081,-45.0131 -73.6342,-66.06602 -141.9473,-68.93164 h -0.01 -0.01 c -7.4515,-0.30844 -13.3438,-0.56129 -18.4355,-0.64844 z m 396.6582,47.08203 c 19.457,0 24.1901,2.98139 24.873,3.73633 0.6829,0.75494 4.3438,9.03011 4.3438,31.11719 0,28.99886 -5.6759,42.16377 -13.4668,49.5625 l -0,0.002 -0,0.002 c -1.3702,1.30185 -27.8328,15.34638 -44.295,18.80859 -17.2023,3.49997 -48.8038,2.19394 -53.1933,0.84961 -13.0244,-4.19429 -25.7096,-17.18742 -29.4551,-29.71289 l -0.01,-0.0273 -0.01,-0.0273 c -7.5653,-25.09605 0.4351,-42.978 29.5332,-58.01953 21.6772,-11.14214 45.0823,-16.29102 81.6817,-16.29102 z m -397.5137,3.08985 c 4.2184,0.0655 9.875,0.23965 17.2051,0.54297 59.7841,2.50784 87.5766,17.63597 99.1191,41.05468 l 0.016,0.0312 0.014,0.0312 c 10.8486,21.8573 2.4987,46.9947 -21.4433,59.56446 -8.1974,4.20442 -5.7764,3.53072 -25.6582,4.00781 h -0.029 l -0.027,0.002 c -26.4239,0.69428 -30.9281,0.0593 -55.0469,-8.75781 l -0.066,-0.0234 -0.064,-0.0234 c -20.4,-7.32959 -27.5583,-15.04184 -31.2051,-27.0039 l -0.01,-0.0195 -0.01,-0.0195 c -5.4647,-17.82048 -6.703,-38.05696 -4.4082,-51.39258 1.5769,-8.68019 3.2512,-12.59149 3.8418,-13.53711 0.5932,-0.94987 0.087,-0.85469 4.0273,-2.78906 0,-0.002 0,-0.002 0.01,-0.004 3.2422,-1.56774 2.1209,-1.29998 5.1386,-1.55274 1.5878,-0.13298 4.372,-0.17689 8.5938,-0.11132 z"
           style="color:#000000;font-style:normal;font-variant:normal;font-weight:normal;font-stretch:normal;font-size:medium;line-height:normal;font-family:sans-serif;font-variant-ligatures:normal;font-variant-position:normal;font-variant-caps:normal;font-variant-numeric:normal;font-variant-alternates:normal;font-feature-settings:normal;text-indent:0;text-align:start;text-decoration:none;text-decoration-line:none;text-decoration-style:solid;text-decoration-color:#000000;letter-spacing:normal;word-spacing:normal;text-transform:none;writing-mode:lr-tb;direction:ltr;text-orientation:mixed;dominant-baseline:auto;baseline-shift:baseline;text-anchor:start;white-space:normal;shape-padding:0;clip-rule:nonzero;display:inline;overflow:visible;visibility:visible;opacity:1;isolation:auto;mix-blend-mode:normal;color-interpolation:sRGB;color-interpolation-filters:linearRGB;solid-color:#000000;solid-opacity:1;vector-effect:none;fill:#000000;fill-opacity:1;fill-rule:nonzero;stroke:none;stroke-width:50.11000061;stroke-linecap:butt;stroke-linejoin:miter;stroke-miterlimit:4;stroke-dasharray:none;stroke-dashoffset:0;stroke-opacity:1;color-rendering:auto;image-rendering:auto;shape-rendering:auto;text-rendering:auto;enable-background:accumulate" />
      </g>
    </g>
  </g>
  <g
     id="layer4" />
</svg>
